<?xml version="1.0" encoding="UTF-8" standalone="no"?>
<!DOCTYPE svg PUBLIC "-//W3C//DTD SVG 1.1//EN" "http://www.w3.org/Graphics/SVG/1.1/DTD/svg11.dtd">
<svg xmlns="http://www.w3.org/2000/svg" version="1.1" viewBox="0.00 0.00 1024.00 1024.00">
<path fill="#f9f8e3" d="
  M 711.00 386.10
  Q 711.21 388.42 710.93 390.25
  Q 709.70 398.10 706.86 410.20
  Q 698.36 446.57 674.06 479.53
  Q 654.17 506.52 626.60 525.59
  Q 602.54 542.24 575.07 550.52
  Q 564.69 553.65 550.95 556.06
  Q 537.41 558.43 526.35 558.72
  C 478.96 559.93 432.65 545.15 396.77 513.98
  Q 387.07 505.55 377.79 495.18
  C 356.08 470.90 342.52 441.80 336.55 409.49
  Q 332.98 390.16 333.03 367.52
  Q 333.05 361.58 333.52 358.14
  C 334.09 354.07 334.01 350.41 334.71 345.68
  Q 343.93 282.79 389.41 238.68
  Q 434.25 195.19 496.07 186.99
  Q 503.15 186.05 505.78 186.02
  C 510.31 185.95 513.80 185.11 518.76 185.09
  Q 530.38 185.05 541.73 186.05
  C 581.39 189.53 618.55 204.07 646.97 231.75
  Q 647.68 232.44 647.55 233.08
  A 0.41 0.40 -67.9 0 1 646.93 233.35
  Q 626.82 220.12 609.52 214.30
  Q 582.26 205.13 552.05 205.26
  Q 548.60 205.27 544.53 205.67
  C 541.16 205.99 536.99 205.68 533.52 206.57
  C 531.86 207.00 530.35 206.85 528.82 207.13
  Q 510.91 210.42 497.44 216.46
  C 457.37 234.46 426.89 269.44 414.67 311.65
  Q 408.88 331.64 408.26 350.00
  Q 407.86 361.76 410.60 378.16
  Q 415.35 406.56 430.12 430.64
  Q 446.92 458.02 473.33 476.19
  Q 498.77 493.69 529.05 499.90
  Q 535.65 501.25 544.50 502.28
  Q 553.44 503.33 560.08 503.36
  Q 585.43 503.46 609.75 495.97
  Q 631.49 489.28 649.97 476.33
  Q 667.71 463.90 681.86 444.97
  Q 699.53 421.33 708.12 393.82
  Q 710.54 386.09 710.62 385.99
  A 0.21 0.21 0.0 0 1 711.00 386.10
  Z"
/>
<path fill="#f9f8e3" d="
  M 621.64 442.23
  A 4.45 4.45 0.0 0 1 615.91 442.55
  C 601.81 431.92 588.99 421.31 575.52 410.73
  Q 569.86 406.28 556.12 394.58
  A 0.92 0.91 -35.5 0 0 555.18 394.43
  C 545.51 398.23 535.51 394.03 530.21 385.60
  Q 521.78 372.20 530.90 359.16
  Q 532.75 356.53 535.32 354.71
  A 1.85 1.83 74.2 0 0 536.09 353.31
  Q 537.24 334.98 538.54 321.00
  Q 539.11 314.78 543.09 272.25
  C 543.33 269.65 543.87 267.16 543.96 264.60
  Q 544.15 258.93 545.23 253.57
  A 1.61 1.60 -23.0 0 1 545.45 253.03
  C 547.45 249.83 549.79 250.71 551.50 253.26
  A 2.20 2.17 -65.0 0 1 551.87 254.30
  L 559.57 353.16
  A 0.56 0.55 -74.7 0 0 559.80 353.57
  Q 563.91 356.36 565.18 357.52
  C 571.95 363.70 573.57 371.71 571.85 380.54
  A 1.49 1.48 29.7 0 0 572.20 381.81
  L 621.93 436.91
  A 3.75 3.75 0.0 0 1 621.75 442.12
  L 621.64 442.23
  Z"
/>
<path fill="#f9f8e3" d="
  M 287.50 806.29
  Q 275.33 801.31 265.94 793.31
  Q 242.60 773.41 238.10 742.75
  Q 237.36 737.66 237.15 731.70
  Q 236.02 698.57 256.61 674.08
  Q 276.32 650.62 306.69 645.48
  Q 324.50 642.47 342.69 645.59
  C 364.03 649.25 383.59 660.03 396.83 677.29
  Q 412.60 697.84 413.58 724.98
  Q 413.68 727.91 412.74 740.25
  Q 412.57 742.46 410.35 751.08
  Q 408.81 757.06 406.96 761.63
  C 399.10 781.06 381.25 797.93 362.04 806.01
  C 338.28 816.01 311.41 816.07 287.50 806.29
  Z
  M 271.88 728.95
  C 271.99 743.94 275.18 758.63 283.67 770.85
  C 297.80 791.20 325.49 796.87 347.40 786.77
  C 367.29 777.60 377.56 756.74 378.95 735.24
  Q 379.11 732.85 379.07 728.11
  Q 379.03 723.38 378.84 720.99
  C 377.11 699.52 366.52 678.82 346.49 669.96
  C 324.42 660.20 296.83 666.30 283.02 686.87
  C 274.72 699.22 271.76 713.96 271.88 728.95
  Z"
/>
<path fill="#f9f8e3" d="
  M 203.95 686.08
  A 0.14 0.13 23.0 0 1 203.72 686.17
  C 195.11 677.90 184.92 670.25 173.55 666.50
  Q 166.80 664.27 158.27 665.06
  C 147.43 666.06 137.25 675.39 138.26 687.01
  C 139.22 698.01 151.84 704.80 161.22 709.00
  Q 173.44 714.47 185.03 720.72
  C 197.99 727.72 208.96 737.23 213.11 751.66
  Q 216.10 762.04 213.84 773.00
  Q 211.37 784.96 202.84 794.08
  C 194.10 803.41 183.54 808.50 171.38 811.60
  Q 165.49 813.10 157.93 813.38
  Q 131.75 814.37 108.98 799.73
  A 2.77 2.74 -73.9 0 1 107.71 797.40
  L 107.71 762.30
  A 0.23 0.23 0.0 0 1 108.12 762.15
  Q 110.29 764.86 115.30 770.47
  C 124.99 781.33 137.47 788.86 152.04 790.62
  Q 165.11 792.20 175.73 785.46
  Q 179.99 782.75 182.22 779.40
  C 185.96 773.81 187.30 766.32 184.12 760.03
  C 180.39 752.62 171.66 746.87 164.18 743.33
  Q 161.39 742.00 145.22 734.29
  Q 137.47 730.59 128.39 723.39
  C 117.31 714.60 109.81 701.28 110.51 686.96
  Q 111.30 670.86 123.14 659.57
  Q 133.44 649.75 146.99 646.47
  C 156.75 644.11 166.60 643.43 177.00 645.40
  Q 190.63 647.97 203.74 654.46
  A 0.40 0.39 -76.4 0 1 203.95 654.81
  L 203.95 686.08
  Z"
/>
<path fill="#f9f8e3" d="
  M 593.77 696.03
  A 0.23 0.23 0.0 0 0 593.34 695.97
  L 532.77 808.73
  A 0.53 0.51 -75.0 0 1 532.32 809.00
  L 528.38 809.00
  A 1.47 1.46 76.3 0 1 527.08 808.20
  L 474.20 703.45
  A 2.29 2.13 -69.5 0 1 474.08 703.16
  Q 473.50 701.11 472.65 700.14
  A 0.41 0.41 0.0 0 0 471.94 700.42
  C 472.06 705.55 470.99 712.01 470.97 717.92
  C 470.96 723.70 470.19 729.38 470.07 735.37
  Q 469.83 747.07 469.65 748.94
  C 468.78 757.89 469.04 767.51 468.47 777.22
  Q 467.56 792.83 467.80 808.51
  A 0.45 0.45 0.0 0 1 467.35 808.96
  L 439.71 808.96
  A 0.48 0.48 0.0 0 1 439.25 808.35
  C 439.40 807.78 439.76 807.20 439.84 806.49
  Q 440.96 796.58 441.04 791.17
  Q 441.14 785.36 441.42 783.49
  C 442.24 777.99 441.93 771.71 442.66 766.18
  C 443.23 761.83 442.94 758.08 443.48 753.29
  C 444.16 747.33 443.77 740.93 444.48 735.74
  C 445.27 730.03 444.75 725.07 445.59 719.74
  C 446.40 714.58 445.75 707.45 446.65 701.61
  C 447.35 697.03 447.07 688.79 447.80 682.46
  C 448.21 678.98 447.97 674.48 448.34 670.20
  Q 449.17 660.32 449.41 648.50
  A 1.20 1.20 0.0 0 1 450.61 647.33
  L 479.23 647.33
  A 1.41 1.40 -13.5 0 1 480.48 648.09
  L 535.35 754.63
  A 0.43 0.43 0.0 0 0 536.11 754.65
  L 595.46 647.85
  A 1.01 1.00 -75.0 0 1 596.33 647.34
  L 620.72 647.34
  A 1.19 1.19 0.0 0 1 621.91 648.54
  C 621.71 663.59 622.74 678.49 622.90 693.16
  C 623.14 714.66 623.87 732.59 624.25 754.00
  Q 624.31 757.17 624.45 760.63
  Q 626.11 801.73 626.32 804.00
  Q 626.53 806.20 626.77 808.37
  A 0.53 0.53 0.0 0 1 626.24 808.96
  L 594.52 808.96
  A 0.62 0.62 0.0 0 1 593.90 808.27
  C 594.41 803.87 594.69 802.12 594.79 798.19
  Q 595.27 778.29 594.74 755.25
  Q 594.43 741.65 593.88 697.39
  Q 593.87 696.53 593.77 696.03
  Z"
/>
<path fill="#f9f8e3" d="
  M 787.66 765.67
  A 0.47 0.47 0.0 0 0 788.49 765.32
  Q 788.13 762.56 788.12 761.26
  Q 787.93 725.18 786.74 658.50
  Q 786.64 653.07 786.09 647.78
  A 0.43 0.43 0.0 0 1 786.52 647.31
  L 813.69 647.31
  A 0.76 0.76 0.0 0 1 814.45 648.15
  Q 814.04 651.86 814.01 663.75
  Q 813.82 729.47 814.14 792.98
  C 814.17 798.04 814.69 803.89 815.10 808.35
  A 0.57 0.56 87.2 0 1 814.54 808.97
  L 782.99 808.97
  A 0.82 0.80 -18.4 0 1 782.35 808.66
  L 691.93 690.27
  A 0.37 0.37 0.0 0 0 691.26 690.53
  Q 691.81 696.68 691.82 699.50
  C 692.04 752.20 691.63 777.23 692.98 803.00
  Q 693.14 806.00 693.65 808.80
  A 0.17 0.17 0.0 0 1 693.48 809.00
  L 664.27 809.00
  A 0.35 0.34 1.5 0 1 663.92 808.64
  C 664.03 806.25 664.60 802.47 664.70 798.89
  Q 667.22 715.02 664.80 651.24
  Q 664.78 650.73 664.41 648.03
  A 0.63 0.62 -4.0 0 1 665.03 647.32
  L 693.72 647.32
  A 1.61 1.60 -18.7 0 1 694.99 647.94
  L 787.66 765.67
  Z"
/>
<path fill="#f9f8e3" d="
  M 893.02 808.62
  A 0.33 0.33 0.0 0 1 892.69 808.98
  L 857.25 808.98
  A 0.42 0.41 -88.0 0 1 856.84 808.53
  Q 857.39 801.62 857.77 790.25
  Q 858.32 773.75 858.60 728.25
  Q 858.87 685.55 857.75 655.51
  Q 857.61 651.57 857.07 648.28
  A 0.82 0.81 -4.7 0 1 857.88 647.33
  L 891.47 647.33
  A 1.18 1.18 0.0 0 1 892.62 648.79
  Q 892.01 651.23 891.99 654.50
  Q 891.69 709.84 891.43 745.25
  Q 891.28 765.01 892.09 799.42
  C 892.18 803.03 892.81 805.61 893.02 808.62
  Z"
/>
</svg>
